<?xml version="1.0" encoding="utf-8"?>
<!-- Generator: Adobe Illustrator 18.1.1, SVG Export Plug-In . SVG Version: 6.00 Build 0)  -->
<svg version="1.1" id="Layer_2" xmlns="http://www.w3.org/2000/svg" xmlns:xlink="http://www.w3.org/1999/xlink" x="0px" y="0px"
	 viewBox="0 0 125.1 116.5" enable-background="new 0 0 125.1 116.5" xml:space="preserve">
<path fill="#004785" d="M0,29.7v36.7c0,0,23.9,0.7,23.9-18.5C23.9,28.9,0,29.7,0,29.7z"/>
<polygon fill="#004785" points="28.7,55.2 32.1,55.3 32.1,46.6 28.7,46.6 "/>
<rect x="38" y="29.8" fill="#004785" width="2.9" height="54.9"/>
<path fill="#FFFFFF" d="M3.6,33.3V63c0,0,16.2,2.3,16.3-15.7C20,32.5,3.6,33.3,3.6,33.3z"/>
<path fill="#004785" d="M49.2,40.5h-3.3c0,0-0.2,3.7-0.3,4c-0.2,0.5-1,1.4-1,1.4l-2,0.5l-2.2,0.1l0,3.4l2.4,0.2c0,0,0.6-0.1,2.3,1
	c2,1.2,2.4,4.3,2.4,4.3l3.1,0c0,0,0.5-4.1-2.6-7c-0.4-0.4-0.2-1.3,0.2-2c0.4-0.8,0.6-1.8,0.6-1.8L49.2,40.5z"/>
<path fill="#004785" d="M68.6,46.2c0,0-7.7,4.5-7.8,5c-0.2,0.5,0.3,1.2,0.3,1.2s1.9-0.2,2.4-0.3c1.1-0.3,2.8-1.7,2.8-1.7l1.3,2.2
	c0,0-0.9,1.8-3.9,2.7c-4.8,1.4-10.6-2.2-9.9-8.6c0.6-5.2,6-6.1,6-6.1C61.3,40.4,66.7,40.2,68.6,46.2z"/>
<circle fill="#004785" cx="81.3" cy="47.9" r="7.4"/>
<ellipse fill="#FFFFFF" cx="81.3" cy="48" rx="4.1" ry="3.9"/>
<path fill="#004785" d="M93.2,40.5l-0.3,8.8c0,0,0.3,2.6,1.6,4.3c1.3,1.7,2.1,1.6,2.1,1.6l3.8,0.2l0.8-0.4l1.2-0.7l0.1,1h3.8l0-14.8
	h-4v8.3c0,0,0.2,1-0.2,1.8c-0.3,0.7-2.3,0.9-2.3,0.9s-1.6,0.3-2.2-0.3C97,50.8,96.8,49,96.8,49l0.3-8.5H93.2z"/>
<circle fill="#004785" cx="30.4" cy="42.3" r="1.7"/>
<rect x="121.1" y="0" fill="#004785" width="4" height="116.5"/>
<path fill="#FFFFFF" d="M62.8,44.5c0.5,0.1,0.6,0.3,0.6,0.3l-3.8,3.2c0,0-1.7,0.8-0.3-2.8C59.6,44.6,61.7,44.4,62.8,44.5z"/>
<g>
	<g>
		<path fill="#004785" d="M52.3,72.5c-0.7,0.7-1.3,1.2-2,1.5c-0.6,0.3-1.2,0.5-1.8,0.5c-0.7,0-1.3-0.2-1.8-0.7
			c-0.5-0.5-0.7-1.1-0.7-1.8c0-0.5,0.1-1.1,0.3-1.7c0.2-0.6,0.5-1.1,0.9-1.5c0.4-0.4,0.8-0.8,1.3-1.1c0.5-0.3,1-0.4,1.5-0.4
			c0.5,0,0.9,0.1,1.2,0.4c0.3,0.3,0.5,0.6,0.5,1.1c0,0.1,0,0.2-0.1,0.3c-0.1,0.1-0.2,0.2-0.3,0.2l-1,0.5l-0.3,0.1
			c-0.1,0-0.1-0.1-0.1-0.2l0.1-0.4l0.1-0.4c0-0.2-0.1-0.4-0.2-0.6c-0.1-0.1-0.2-0.2-0.4-0.2c-0.3,0-0.5,0.1-0.8,0.4
			c-0.2,0.3-0.4,0.7-0.6,1.1C48.1,70,48,70.5,48,71c0,0.6,0.2,1.2,0.5,1.6c0.3,0.4,0.7,0.6,1.2,0.6c0.3,0,0.5,0,0.8-0.1
			c0.2-0.1,0.5-0.3,0.9-0.5c0.2-0.2,0.5-0.5,1-0.9V72.5z"/>
		<path fill="#004785" d="M59.8,72.5c-0.5,0.5-1,0.7-1.4,0.7c-0.1,0-0.2,0-0.3,0h0c-0.1,0-0.2-0.1-0.3-0.1c-0.2-0.1-0.4-0.2-0.6-0.3
			c-0.4,0.6-0.8,1-1.3,1.3c-0.5,0.3-0.9,0.5-1.5,0.5c-0.4,0-0.8-0.1-1.1-0.3c-0.3-0.2-0.6-0.5-0.8-0.9c-0.2-0.4-0.3-0.9-0.3-1.4
			c0-0.8,0.2-1.6,0.6-2.3c0.4-0.7,1-1.3,1.7-1.7c0.7-0.4,1.5-0.6,2.3-0.6c0.5,0,0.8,0.1,1,0.2c0.2,0.1,0.4,0.2,0.4,0.3
			c0,0.1,0,0.1,0,0.2c0,0,0,0.1,0,0.1c0,0,0,0.1,0,0.3c0,1-0.3,2.3-0.9,3.8c0.3,0.3,0.6,0.4,0.9,0.4c0.4,0,0.9-0.3,1.4-1V72.5z
			 M55.9,70.2c0-0.5,0.1-0.9,0.3-1.2c0.2-0.3,0.5-0.7,0.9-1.1l-0.4,0c-0.6,0-1,0.2-1.3,0.6c-0.4,0.4-0.6,0.9-0.7,1.5
			c-0.2,0.6-0.2,1.2-0.2,1.7c0,0.6,0.1,1,0.3,1.3c0.2,0.3,0.4,0.5,0.7,0.5c0.4,0,0.8-0.4,1.3-1.1C56.2,71.6,55.9,70.9,55.9,70.2z"/>
		<path fill="#004785" d="M65.3,72.5c-0.8,0.7-1.5,1.3-2,1.6c-0.6,0.3-1.1,0.5-1.6,0.5c-0.4,0-0.8-0.1-1.1-0.3
			c-0.3-0.2-0.5-0.5-0.7-0.9c-0.2-0.4-0.2-0.8-0.2-1.3c0-0.7,0.1-1.5,0.3-2.4c0.2-0.9,0.4-1.7,0.7-2.4c0.2-0.7,0.5-1.4,0.8-2.2
			c0.1-0.2,0.1-0.3,0.2-0.4c0.1-0.2,0.1-0.3,0.1-0.3l0.1-0.2c0.1-0.3,0.3-0.5,0.4-0.7l2.1-0.8l0.2,0c0.2,0,0.3,0.1,0.4,0.4
			c0.1,0.3,0.1,0.6,0.1,0.9c0,0.8-0.1,1.5-0.3,2.2c-0.2,0.7-0.6,1.4-1.1,2.2c-0.5,0.8-1.1,1.5-1.8,2.3l-0.1,1.2
			c0,0.5,0.1,0.9,0.3,1.1c0.2,0.3,0.4,0.4,0.7,0.4c0.4,0,0.7-0.1,1-0.4c0.3-0.2,0.8-0.6,1.5-1.3V72.5z M63.3,67.6
			c0.4-0.6,0.6-1.2,0.8-1.9c0.2-0.6,0.3-1.1,0.3-1.6c0-0.2,0-0.3-0.1-0.5c-0.1-0.1-0.1-0.2-0.2-0.2c-0.1,0-0.2,0.1-0.3,0.2
			c-0.1,0.1-0.2,0.3-0.3,0.5c-0.1,0.2-0.2,0.3-0.2,0.4c-0.1,0.3-0.2,0.5-0.2,0.6c-0.1,0.3-0.2,0.5-0.2,0.7c-0.3,0.9-0.6,2-0.8,3.3
			C62.6,68.8,63,68.2,63.3,67.6z"/>
		<path fill="#004785" d="M70.8,72.5c-0.8,0.7-1.5,1.3-2,1.6c-0.6,0.3-1.1,0.5-1.6,0.5c-0.4,0-0.8-0.1-1.1-0.3
			c-0.3-0.2-0.5-0.5-0.7-0.9c-0.2-0.4-0.2-0.8-0.2-1.3c0-0.7,0.1-1.5,0.3-2.4c0.2-0.9,0.4-1.7,0.7-2.4c0.2-0.7,0.5-1.4,0.8-2.2
			c0.1-0.2,0.1-0.3,0.2-0.4c0.1-0.2,0.1-0.3,0.1-0.3l0.1-0.2c0.1-0.3,0.3-0.5,0.4-0.7l2.1-0.8l0.2,0c0.2,0,0.3,0.1,0.4,0.4
			c0.1,0.3,0.1,0.6,0.1,0.9c0,0.8-0.1,1.5-0.3,2.2c-0.2,0.7-0.6,1.4-1.1,2.2c-0.5,0.8-1.1,1.5-1.8,2.3l-0.1,1.2
			c0,0.5,0.1,0.9,0.3,1.1c0.2,0.3,0.4,0.4,0.7,0.4c0.4,0,0.7-0.1,1-0.4c0.3-0.2,0.8-0.6,1.5-1.3V72.5z M68.8,67.6
			c0.4-0.6,0.6-1.2,0.8-1.9c0.2-0.6,0.3-1.1,0.3-1.6c0-0.2,0-0.3-0.1-0.5c-0.1-0.1-0.1-0.2-0.2-0.2s-0.2,0.1-0.3,0.2
			c-0.1,0.1-0.2,0.3-0.3,0.5c-0.1,0.2-0.2,0.3-0.2,0.4c-0.1,0.3-0.2,0.5-0.2,0.6c-0.1,0.3-0.2,0.5-0.2,0.7c-0.3,0.9-0.6,2-0.8,3.3
			C68.1,68.8,68.5,68.2,68.8,67.6z"/>
		<path fill="#004785" d="M77,72.5c-0.4,0.3-0.6,0.6-0.8,0.7c-0.3,0.3-0.5,0.4-0.6,0.5c-0.4,0.3-0.8,0.5-1.2,0.6
			c-0.2,0.1-0.4,0.1-0.6,0.1c-0.2,0-0.4,0.1-0.6,0.1c-0.8,0-1.4-0.2-1.8-0.7c-0.5-0.5-0.7-1.1-0.7-1.9c0-0.6,0.1-1.1,0.3-1.7
			c0.2-0.6,0.5-1.1,0.9-1.5c0.4-0.4,0.8-0.8,1.3-1c0.5-0.2,0.9-0.4,1.4-0.4c0.5,0,0.9,0.1,1.2,0.4c0.3,0.2,0.5,0.6,0.5,1.1
			c0,0.5-0.2,0.9-0.6,1.3c-0.4,0.4-0.9,0.6-1.3,0.8c-0.4,0.2-1,0.4-1.8,0.6c0.1,0.5,0.3,0.9,0.6,1.2c0.3,0.3,0.7,0.4,1.1,0.4
			c0.3,0,0.5-0.1,0.8-0.2c0.3-0.1,0.5-0.3,0.7-0.5l1-1V72.5z M74.2,70.1c0.4-0.4,0.5-0.8,0.5-1.4c0-0.3-0.1-0.5-0.2-0.6
			C74.5,68,74.4,68,74.2,68c-0.2,0-0.4,0.1-0.7,0.4c-0.3,0.3-0.5,0.6-0.6,1.1c-0.2,0.5-0.2,1-0.2,1.6C73.3,70.8,73.9,70.5,74.2,70.1
			z"/>
		<path fill="#004785" d="M83.2,72.5c-0.7,0.7-1.3,1.2-2,1.5c-0.6,0.3-1.2,0.5-1.8,0.5c-0.7,0-1.3-0.2-1.8-0.7
			c-0.5-0.5-0.7-1.1-0.7-1.8c0-0.5,0.1-1.1,0.3-1.7c0.2-0.6,0.5-1.1,0.9-1.5c0.4-0.4,0.8-0.8,1.3-1.1c0.5-0.3,1-0.4,1.5-0.4
			c0.5,0,0.9,0.1,1.2,0.4c0.3,0.3,0.5,0.6,0.5,1.1c0,0.1,0,0.2-0.1,0.3c-0.1,0.1-0.2,0.2-0.3,0.2l-1,0.5L81,69.9
			c-0.1,0-0.1-0.1-0.1-0.2l0.1-0.4l0.1-0.4c0-0.2-0.1-0.4-0.2-0.6c-0.1-0.1-0.2-0.2-0.4-0.2c-0.3,0-0.5,0.1-0.8,0.4
			c-0.2,0.3-0.4,0.7-0.6,1.1c-0.2,0.5-0.2,1-0.2,1.4c0,0.6,0.2,1.2,0.5,1.6c0.3,0.4,0.7,0.6,1.2,0.6c0.3,0,0.5,0,0.8-0.1
			c0.2-0.1,0.5-0.3,0.9-0.5c0.2-0.2,0.5-0.5,1-0.9V72.5z"/>
		<path fill="#004785" d="M85.1,64.9l2.2-0.5l-0.8,2.9l1.2-0.1l-0.3,1.3L86,68.7l-0.3,0.9c0,0.1-0.1,0.4-0.2,0.7l0,0.1
			c-0.1,0.4-0.1,0.6-0.2,0.7c-0.1,0.4-0.2,0.8-0.2,1c0,0.3,0.1,0.5,0.2,0.6c0.1,0.2,0.3,0.3,0.5,0.3c0.3,0,0.6-0.1,0.9-0.3
			c0.2-0.2,0.6-0.5,1.2-1.1v1c-0.7,0.7-1.3,1.2-1.8,1.5c-0.5,0.3-1,0.5-1.4,0.5c-0.5,0-0.9-0.2-1.2-0.6c-0.3-0.4-0.4-0.9-0.4-1.6
			c0-0.4,0-0.8,0.1-1.1c0-0.1,0.1-0.3,0.1-0.6l0.1-0.2c0-0.2,0.1-0.4,0.2-0.6l0.3-1.1l-0.6,0l0.3-1.3l0.8,0L85.1,64.9z"/>
		<path fill="#004785" d="M92,72.5c-1.3,1.4-2.3,2-2.9,2c-0.4,0-0.7-0.2-0.9-0.6c-0.2-0.4-0.4-0.8-0.4-1.3c0-0.8,0.1-1.6,0.4-2.3
			c0.1-0.6,0.3-1.1,0.5-1.5c0.1-0.4,0.2-0.7,0.4-1l2.1-0.4h0.1l-0.8,2.6L90,71.3c-0.1,0.3-0.1,0.6-0.1,0.9c0,0.2,0,0.3,0.1,0.4
			c0.1,0.1,0.2,0.2,0.3,0.2c0.2,0,0.5-0.1,0.7-0.3c0.1-0.1,0.2-0.2,0.4-0.4c0.2-0.2,0.4-0.4,0.6-0.6V72.5z M90.5,64.3
			c0.1,0.1,0.3,0.1,0.4,0.1c0.3,0,0.6-0.1,0.9-0.3c0,0.7-0.1,1.2-0.4,1.5c-0.2,0.3-0.6,0.5-1.1,0.5c-0.5,0-0.9-0.1-1.2-0.4
			c0.3-0.5,0.6-1,0.7-1.6L90.5,64.3z"/>
		<path fill="#004785" d="M99.5,72.5c-0.5,0.5-1,0.7-1.4,0.7c-0.1,0-0.2,0-0.3,0h0c-0.1,0-0.2-0.1-0.3-0.1c-0.2-0.1-0.4-0.2-0.6-0.3
			c-0.4,0.6-0.8,1-1.3,1.3c-0.5,0.3-0.9,0.5-1.5,0.5c-0.4,0-0.8-0.1-1.1-0.3c-0.3-0.2-0.6-0.5-0.8-0.9C92,72.9,92,72.4,92,71.9
			c0-0.8,0.2-1.6,0.6-2.3c0.4-0.7,1-1.3,1.7-1.7c0.7-0.4,1.5-0.6,2.3-0.6c0.5,0,0.8,0.1,1,0.2c0.2,0.1,0.4,0.2,0.4,0.3
			c0,0.1,0,0.1,0,0.2c0,0,0,0.1,0,0.1c0,0,0,0.1,0,0.3c0,1-0.3,2.3-0.8,3.8c0.3,0.3,0.6,0.4,0.9,0.4c0.4,0,0.8-0.3,1.4-1V72.5z
			 M95.6,70.2c0-0.5,0.1-0.9,0.3-1.2c0.2-0.3,0.5-0.7,0.9-1.1l-0.4,0c-0.6,0-1,0.2-1.3,0.6c-0.4,0.4-0.6,0.9-0.7,1.5
			c-0.2,0.6-0.2,1.2-0.2,1.7c0,0.6,0.1,1,0.3,1.3c0.2,0.3,0.4,0.5,0.7,0.5c0.4,0,0.8-0.4,1.3-1.1C95.9,71.6,95.6,70.9,95.6,70.2z"/>
		<path fill="#004785" d="M99.5,74.5l-0.1-1.7v-0.5c0-0.1,0-0.3,0.1-0.6l0-0.1c0-0.3,0.1-0.5,0.1-0.6c0-0.1,0-0.2,0.1-0.3
			c0-0.2,0.1-0.3,0.1-0.3c0.1-0.5,0.2-0.9,0.4-1.2l0.6-1.5l2-0.4c-0.4,1.1-0.7,2-0.8,2.7c0.2-0.3,0.6-0.7,1.1-1.2
			c0.3-0.3,0.6-0.6,0.9-0.8c0.5-0.5,1-0.7,1.6-0.7c0.2,0,0.4,0,0.5,0.1c0.2,0.1,0.3,0.2,0.4,0.4c0.1,0.2,0.1,0.4,0.1,0.6
			c0,0.1,0,0.3-0.1,0.6c0,0.3-0.1,0.6-0.3,1l-0.4,1c-0.3,0.9-0.5,1.4-0.5,1.6c0,0.1,0,0.3,0.1,0.4c0.1,0.1,0.2,0.1,0.3,0.1
			c0.3,0,0.6-0.2,1-0.6c0.4-0.3,0.7-0.7,1-1v1c-0.7,0.7-1.3,1.2-1.8,1.5c-0.5,0.3-1,0.5-1.5,0.5c-0.4,0-0.7-0.1-0.9-0.4
			c-0.2-0.3-0.3-0.6-0.3-1c0-0.6,0.2-1.5,0.7-2.7c0.3-0.7,0.4-1.1,0.4-1.2c0-0.2-0.1-0.3-0.2-0.3c-0.2,0-0.5,0.2-0.9,0.6
			c-0.2,0.3-0.5,0.5-0.7,0.7c-0.2,0.2-0.4,0.5-0.7,0.8l-0.2,0.2c0,0.2-0.1,0.5-0.2,0.8c0,0.2-0.1,0.5-0.1,0.7l-0.1,1.4L99.5,74.5z"
			/>
	</g>
</g>
</svg>
